<svg xmlns="http://www.w3.org/2000/svg" viewBox="0 0 100 100">
  <g fill="none" stroke="#B32047" stroke-width="2.5" stroke-linecap="round" stroke-linejoin="round">
    <path d="M50 82 C46 65 46 42 50 22 C54 42 54 65 50 82 Z" />
    <path d="M50 82 C36 72 26 56 26 40 C34 50 44 62 50 82 Z" opacity="0.85" />
    <path d="M50 82 C64 72 74 56 74 40 C66 50 56 62 50 82 Z" opacity="0.85" />
    <path d="M50 82 C30 76 14 64 10 48 C24 54 40 64 50 82 Z" opacity="0.6" />
    <path d="M50 82 C70 76 86 64 90 48 C76 54 60 64 50 82 Z" opacity="0.6" />
    <line x1="18" y1="84" x2="82" y2="84" opacity="0.7" />
  </g>
</svg>
